<?xml version="1.0" encoding="UTF-8"?><svg id="Layer_2" xmlns="http://www.w3.org/2000/svg" viewBox="0 0 512 512"><defs><style>.cls-1{fill:#80caff;}</style></defs><g id="Layer_1-2"><path class="cls-1" d="M349.5,308.4c18.7-5.3,35.9,12,24.6,28.1-23.7,38.1-67.8,62.6-118.2,62.6s-94.4-24.5-119-62.6c-10.4-16.1,6.8-33.4,25.4-28.1,29,6.7,60.5,10.4,93.6,10.4s64.7-3.7,93.6-10.4Zm-141.1-100.4c0,17.7-14.4,32-32,32s-32-14.3-32-32,14.3-32,32-32,32,14.3,32,32Zm73.5,22.6c-8-7.6-8.4-20.2-.9-28.3,14.6-15.5,35.3-22.3,54.6-22.3s40.1,6.8,54.6,22.3c7.6,8.1,7.2,20.7-.9,28.3-8.1,7.5-20.7,7.1-28.3-.9-5.4-5.9-14.7-9.7-25.4-9.7-11.5,0-19.9,3.8-25.4,9.7-7.5,8-20.2,8.4-28.3,.9Zm230.1,25.4c0,141.4-114.6,256-256,256S0,397.4,0,256,114.6,0,256,0s256,114.6,256,256ZM256,48c-114.9,0-208,93.1-208,208s93.1,208,208,208,208-93.1,208-208S370.9,48,256,48Z"/></g></svg>